<svg xmlns="http://www.w3.org/2000/svg" viewBox="0 0 550 550">
  <g fill="#FFF" transform="translate(19 40)">
    <path d="M402.6 247.6v-75.8c.4-59.3-39.5-98.6-73.7-114.2-8.7-4-18-7.3-27.7-9.8v-2.4C301.2 20.5 280.9.2 256 .2c-24.9 0-45.3 20.3-45.3 45.2v3.2c-8.5 2.4-16.8 5.5-24.7 9.1-37.8 17.4-76.1 59.5-76.4 114.1v75.9c0 53-18.7 98.5-55.6 135.1-3.1 3-4.2 7.5-2.9 11.6 1.3 4.1 4.8 7.1 9 7.9l80 13.8c14.4 2.5 27.6 4.5 40.2 6.2 15.6 29.4 45.1 47.6 77.2 47.6s61.6-18.2 77.2-47.6c12.6-1.7 25.7-3.7 40-6.2l80-13.8c4.3-.8 7.7-3.8 9-7.9 1.3-4.1.2-8.6-2.9-11.6-38.6-38.5-58.2-83.9-58.2-135.2zm-94.9 154.7c-5.3.5-10.6 1-15.8 1.3l-2.9.2c-4.5.3-8.9.5-13.3.7l-2.7.1c-10.5.4-20.7.4-31.1 0l-2.8-.1c-4.3-.2-8.7-.4-13.1-.7l-3.2-.2c-5-.4-10.1-.8-15.9-1.4-5.8-.6-11.7-1.3-17.9-2-13.7-1.7-28.4-4-45.1-6.9l-59.2-10.2c31.7-38.1 47.8-83.7 47.8-135.5v-75.8c.3-44.4 31.8-78.8 63-93.2 9-4.2 18.7-7.4 29.1-9.8 20.4-4.6 42-4.8 62.5-.6l.8.1h.2c10.9 2.3 21.3 5.7 31.1 10.2 30.2 13.8 60.5 48 60.2 93.2v75.9c0 49.6 17.4 96.4 50.4 135.6l-59.2 10.2c-16.5 2.9-31.2 5.1-44.9 6.8-6 .8-12 1.5-18 2.1zm-3.2 23.5c-12.3 13.3-29.4 21.1-47 21.1s-34.7-7.8-47-21.1c32.8 3 61.6 3 94 0zM233.9 43.6c.9-11.5 10.5-20.5 22.1-20.5 11.6 0 21.1 8.9 22.1 20.2-14.8-1.8-29.7-1.7-44.2.3z"/>
    <path d="M311.4 95.9c-33.4-15.3-74.7-15.2-107.7 0-19.2 8.8-51.7 34.7-51.9 75.8 0 6.3 5.1 11.5 11.5 11.6 6.3 0 11.5-5.1 11.5-11.5.2-29.4 24.3-48.4 38.5-54.9 27.2-12.5 61.1-12.5 88.4 0 2.8 1.3 5.9 1.4 8.8.3 2.9-1.1 5.2-3.2 6.5-6 1.3-2.8 1.4-5.9.3-8.8-1-2.9-3.1-5.2-5.9-6.5zM23 243.3c0-20.8 8.1-40.3 22.7-55 4.5-4.5 4.5-11.8 0-16.3-2.2-2.2-5.1-3.4-8.2-3.4-3.1 0-6 1.2-8.1 3.4C10.5 191 0 216.3 0 243.3s10.5 52.3 29.5 71.2c2.2 2.2 5.1 3.4 8.2 3.4 3.1 0 6-1.2 8.2-3.4 2.2-2.2 3.4-5.1 3.4-8.1 0-3.1-1.2-6-3.4-8.2C31.1 283.6 23 264.1 23 243.3z"/>
    <path d="M64.9 295.3c2.2 2.2 5.1 3.4 8.2 3.4 3.1 0 6-1.2 8.2-3.4 4.5-4.5 4.5-11.8 0-16.3-9.9-9.8-15.3-23-15.3-36.9 0-14 5.4-27.1 15.3-36.9 4.5-4.5 4.5-11.8 0-16.3-2.2-2.2-5.1-3.4-8.1-3.4-3.1 0-6 1.2-8.2 3.4-14.2 14.2-22 33.1-22 53.2s7.8 39 21.9 53.2zm417.6-123.2c-4.4-4.4-12-4.4-16.3 0-2.2 2.2-3.4 5.1-3.4 8.1 0 3.1 1.2 6 3.4 8.2 14.7 14.7 22.7 34.2 22.7 54.9 0 20.7-8.1 40.3-22.7 54.9-2.2 2.2-3.4 5.1-3.4 8.2 0 3.1 1.2 6 3.4 8.1 2.2 2.2 5.1 3.4 8.1 3.4 3.1 0 6-1.2 8.2-3.4 19-19 29.5-44.3 29.5-71.2 0-26.9-10.5-52.2-29.5-71.2z"/>
    <path d="M430.7 295.3c2.2 2.2 5.1 3.4 8.2 3.4 3.1 0 6-1.2 8.2-3.4 14.2-14.2 22-33.1 22-53.2s-7.8-39-22-53.2c-4.3-4.4-12-4.4-16.3 0-4.5 4.5-4.5 11.8 0 16.3 9.9 9.8 15.3 22.9 15.3 36.9s-5.4 27.1-15.3 36.9c-4.5 4.5-4.5 11.8-.1 16.3z"/>
  </g>
</svg>
