<svg xmlns="http://www.w3.org/2000/svg" viewBox="0 0 175 175">
  <g transform="translate(25 25)">
    <polygon points="87.638 73.697 81.23 35.25 62.597 75.217 43.961 35.25 37.553 73.697 21.997 78.1 42.454 78.1 46.265 53.315 62.594 89.741 62.594 89.752 62.597 89.745 62.599 89.752 62.599 89.741 78.926 53.315 82.739 78.1 103.194 78.1"/>
    <path d="M57.724 117.05C29.498 114.51 7.882 90.838 7.91 62.498c-.036-28.344 21.584-52.02 49.815-54.552V.009C25.422 2.537 0 29.545 0 62.498c0 32.952 25.422 59.96 57.724 62.489v-7.937zM67.564 0v7.937c28.26 2.502 49.923 26.19 49.896 54.56.03 28.374-21.634 52.062-49.896 54.561v7.938c32.34-2.49 57.805-29.52 57.805-62.498 0-32.98-25.466-60.009-57.805-62.498z"/>
  </g>
</svg>
