<svg xmlns="http://www.w3.org/2000/svg" viewBox="0 0 175 175">
  <g fill="none" fill-rule="evenodd">
    <path fill="#000" fill-rule="nonzero" d="M124.956 24c-8.608.004-16.611 4.385-21.195 11.602a24.61 24.61 0 0 0-1.382 23.946l-4.436 4.394.843.835 4.155-4.118a25.065 25.065 0 0 0 3.576 4.948l-.365-.364L82 89.165l.845.835 24.13-23.902c7.927 8.092 20.366 9.871 30.28 4.333 9.915-5.539 14.812-17.003 11.922-27.908-2.891-10.906-12.843-18.508-24.226-18.508l.005-.015zm.055 57c-10.456-.001-19.809 6.453-23.448 16.182-3.64 9.729-.797 20.677 7.125 27.45L88 145.164l.842.835 20.762-20.614a24.958 24.958 0 0 0 6.315 3.573l-5.461 5.42.841.835 5.857-5.813c9.392 3.073 19.726.366 26.366-6.907a24.681 24.681 0 0 0 4.336-26.72C143.855 86.8 134.9 81.01 125.011 81z"/>
    <path fill="#000" fill-rule="nonzero" d="M71.418 25.001h-24.27v20.03l-14.453 14.49.843.845 13.61-13.64v26.227L27 93.154l.843.846 20.148-20.201h23.43A24.322 24.322 0 0 0 92.698 61.67a24.457 24.457 0 0 0 0-24.542A24.322 24.322 0 0 0 71.42 25.001h-.002z"/>
    <polygon fill="#000" fill-rule="nonzero" points="70.964 105.383 70.903 81 46.93 81 46.93 105.383 46.93 111.559 38.865 119.739 39.698 120.587 46.93 113.249 46.93 128.923 26 150.155 26.833 151 47.763 129.768 70.903 129.768 95 129.768 95 105.383"/>
  </g>
</svg>
