<svg xmlns="http://www.w3.org/2000/svg" viewBox="0 0 175 175">
  <g transform="translate(13 38)">
    <path d="M140.535 65.943c-2.988 3.491-6.132 6.573-9.466 9.466-8.553 7.453-17.893 13.71-28.333 18.207-7.327 3.145-14.906 5.22-22.862 5.88-8.553.693-16.887-.47-25.063-3.08-10.597-3.397-20.125-8.806-28.962-15.473-5.723-4.34-11.07-9.056-15.786-14.434-.126-.125-.252-.283-.44-.503 1.195-1.289 2.327-2.61 3.585-3.836 10.597-10.503 22.547-19.057 36.478-24.654 9.182-3.68 18.742-5.566 28.647-5.032 8.554.44 16.698 2.642 24.529 6.038 11.886 5.157 22.358 12.516 31.73 21.415 2.043 1.887 3.93 3.962 5.943 6.006zm-65.472-27.17c-15.094 0-27.076 12.17-27.39 26.762-.346 15.094 11.698 27.735 26.855 28.018 15.598.283 27.925-12.39 27.925-27.264-.032-15.22-12.264-27.515-27.39-27.515zm-25.723 48.9c-5.19-6.415-7.83-13.648-7.768-21.761.063-8.113 2.83-15.283 7.956-21.572-11.918 5.22-22.232 12.704-31.51 21.666 6.29 7.076 23.554 19.025 31.322 21.667zm51.163-43.365c10.503 12.233 10.85 30.692.409 43.302 11.73-5.22 21.95-12.641 31.163-21.54-4.968-6.196-25.188-20.158-31.572-21.762zm-83.805 2.705L11.73 51.98C7.925 46.572 4.088 41.101.22 35.63c.032-.032.063-.094.126-.126 5.472 3.837 10.943 7.705 16.352 11.51zm121.541 4.842l-4.937-4.937c5.409-3.805 10.88-7.641 16.32-11.51l.095.095a11674.18 11674.18 0 0 1-11.478 16.352zM96.761 13.02c.094.22.22.409.252.629.094 1.698.157 3.427.251 5.188-1.32.346-2.61.66-4.088 1.038.22-1.29.472-2.484.629-3.679.126-.975.535-1.761 1.132-2.516 1.227-1.572 2.421-3.176 3.648-4.811v14.245c-1.541-.44-2.893-.849-4.34-1.258-.471 1.604-.943 3.145-1.415 4.749-.314-.095-.597-.157-.943-.252.471-1.604.912-3.144 1.383-4.748-1.32-.409-2.61-.818-3.993-1.227 3.27-5.503 6.51-10.943 9.78-16.383.094.943.157 1.792-.41 2.673-2.64 4.245-5.156 8.553-7.704 12.861a1.274 1.274 0 0 0-.094.315c2.233.66 4.434 1.32 6.761 2.012V11.824c-.377.503-.597.849-.849 1.195-1.006 1.132-2.107 2.201-1.887 3.962.63-1.32 1.258-2.641 1.887-3.962zm-2.358 5.409c1.98-.22 2.044-.283 1.635-1.541-.189.283-.378.566-.535.817-.346-.157-.597-.251-.88-.408-.095.408-.158.786-.22 1.132zm-16.007-6.415c0 4.717-1.195 8.899-3.427 13.018-.283-.503-.504-.88-.692-1.257-1.132-2.233-1.887-4.592-2.359-7.013-.063-.283 0-.786.189-.912 2.044-1.29 4.12-2.484 6.29-3.836zM50.126 8.68c.409.63.943 1.227 1.226 1.918.66 1.793 1.321 3.617 1.793 5.472.66 2.705 1.572 5.22 3.585 7.201a7.3 7.3 0 0 0 .786.66c.126.095.283.158.503.252.377-1.54.503-3.081.189-4.56-.535-2.42-1.227-4.81-1.95-7.17-.503-1.571-.975-3.144-.975-4.81.88 1.823 1.887 3.584 2.61 5.44.723 1.918 1.384 3.868 1.761 5.88.503 2.736-.283 5.252-2.107 7.453.189-.66.346-1.352.535-2.075-1.573-.378-2.862-1.101-3.931-2.233-1.384-1.478-1.887-3.302-2.201-5.22a102.773 102.773 0 0 0-1.132-6.07c-.158-.723-.504-1.383-.755-2.075-.032 0 0-.031.063-.063zm21.478 1.981c.409-3.899 1.478-7.358 3.27-10.597.095-.032.189-.032.252-.063.629 1.51 1.32 2.987 1.887 4.528.849 2.296.817 2.327-1.258 3.585-1.321.818-2.673 1.635-4.151 2.547zm61.1 14.057c.346-.66.63-1.32 1.038-1.95.723-1.163 1.572-1.32 2.767-.566-.031.032-.031.095-.062.126-.19.283-.378.535-.566.818.345-.126.786-.158.974-.41a9.799 9.799 0 0 0 1.227-1.76c.283-.503.251-.503.943-.22-.409 1.352-1.132 2.453-2.39 3.144-.88.504-1.572.032-1.76-1.383-.347.597-.661 1.006-.881 1.478-.44.975-.755 2.012-1.195 2.956-.503 1.132-1.164 1.51-1.918 1.258-.787-.283-1.321-1.447-1.101-2.422.063-.22.126-.44.157-.692l-.189-.094c-.251.44-.597.85-.723 1.32-.283 1.164-.44 2.36-.629 3.523-.597 3.427-2.201 6.163-5.44 7.736-.094.031-.189.094-.283.125-.063.032-.094 0-.252 0-.063-.188-.157-.377-.22-.566.063-.094.063-.157.126-.188 3.616-1.604 5.031-4.623 5.44-8.365.095-.975.283-1.95.63-2.893.565-1.573 1.666-2.013 3.238-1.478.378.22.723.377 1.07.503-.41.094-.818.157-1.227.283-.975.283-1.29 1.572-.535 2.233.158.125.692.094.755-.032.377-.786.692-1.635 1.006-2.484zm-25.691 3.333a3.033 3.033 0 0 1 3.05-3.05c1.698 0 3.05 1.384 3.05 3.082 0 1.666-1.415 3.082-3.082 3.05a3.074 3.074 0 0 1-3.018-3.082zm-64.088.032c-.032 1.666-1.447 3.082-3.082 3.05-1.667-.031-3.082-1.478-3.02-3.113.032-1.698 1.447-3.05 3.114-3.019 1.667 0 3.019 1.384 2.988 3.082zM30.723 36.76c-.188.692-.566.66-.975.472a15.507 15.507 0 0 1-4.465-3.334c-1.164-1.257-2.075-2.673-2.61-4.276-1.132-3.46-3.428-5.85-6.572-7.516-.346-.189-.88-.315-.535-.818.094-.157.692-.188.943-.063 3.24 1.604 5.692 3.994 6.887 7.453 1.164 3.428 3.46 5.818 6.573 7.547.283.158.534.378.754.535z"/>
    <path d="M28.836 38.019c-.188.723-.597.692-.943.44-1.29-.88-2.641-1.73-3.774-2.799-1.415-1.289-2.358-2.956-2.955-4.78-1.101-3.364-3.365-5.691-6.447-7.327-.157-.094-.377-.125-.472-.251-.126-.157-.22-.44-.157-.629.031-.126.315-.22.503-.22.126 0 .315.094.44.157 3.27 1.635 5.724 4.025 6.887 7.516 1.132 3.333 3.302 5.723 6.352 7.39.22.157.41.346.566.503z"/>
    <path d="M26.981 39.277c-.22.629-.597.66-.975.409-1.163-.818-2.358-1.541-3.396-2.516-1.446-1.32-2.39-2.988-2.987-4.843-1.101-3.333-3.302-5.66-6.353-7.296-.157-.094-.377-.125-.471-.251-.157-.189-.22-.409-.315-.63.252-.062.503-.188.755-.188.126 0 .283.095.44.189 3.208 1.698 5.598 4.12 6.793 7.641 1.069 3.145 3.05 5.472 5.943 7.044.189.063.377.283.566.44zm112.547-17.61c.252.094.472.188.724.283-.63 1.73-1.699 2.987-3.334 3.742-.534.251-.88.597-1.163 1.1-1.132 2.044-2.736 3.68-4.812 4.78a2.86 2.86 0 0 0-1.226 1.29c-1.226 2.295-2.799 4.308-5.063 5.66-.157.094-.314.189-.503.283-.094-.094-.157-.189-.22-.283-.063-.126-.126-.22-.189-.409 2.673-1.51 4.34-3.836 5.692-6.478.126-.22.409-.409.629-.534 2.327-1.164 4.025-2.956 5.251-5.22.158-.315.504-.598.85-.755 1.603-.63 2.704-1.824 3.364-3.46z"/>
    <path d="M140.66 22.956c.252.094.472.157.66.252 0 .094.032.188 0 .251-.691 1.793-1.98 2.988-3.647 3.868-.283.157-.566.377-.723.66-1.258 2.327-3.02 4.12-5.378 5.346-.283.158-.566.503-.723.786-1.226 2.328-2.799 4.34-5.126 5.755-.126-.22-.283-.409-.44-.66 2.39-1.447 3.93-3.585 5.126-6.038.094-.189.314-.377.503-.472 2.453-1.195 4.214-3.05 5.44-5.44.095-.189.283-.44.472-.503 1.792-.755 3.082-1.95 3.836-3.805zM51.981 3.648c1.29 1.635 2.138 3.459 2.422 5.503a13.85 13.85 0 0 1 .062 3.019c-.251 2.736.252 5.251 1.73 7.578.157.22.283.472.346.755-2.264-2.264-3.71-4.906-3.428-8.239.22-2.484.315-4.937-.597-7.358-.158-.378-.346-.818-.535-1.258zM36.29 17.988c1.038 0 1.824.786 1.824 1.823 0 1.038-.849 1.887-1.887 1.856-1.006 0-1.823-.85-1.823-1.856a1.82 1.82 0 0 1 1.886-1.824zm75.566 1.792c0-1.038.755-1.793 1.824-1.793 1.07 0 1.887.818 1.887 1.856-.031 1.006-.849 1.824-1.855 1.824-1.07 0-1.887-.818-1.856-1.887zm-40.188-6.635c-.252-.85 0-1.321.691-1.73 1.856-1.07 3.68-2.233 5.504-3.333.471.817.157 1.258-.566 1.666-1.856 1.038-3.711 2.202-5.63 3.397zm44.874 1.446c-.723.032-1.258-.503-1.29-1.226-.03-.755.535-1.321 1.29-1.321.692 0 1.258.566 1.258 1.258 0 .723-.566 1.29-1.258 1.29zm-83.05-2.547c.723.031 1.226.566 1.226 1.29 0 .691-.566 1.257-1.29 1.257a1.31 1.31 0 0 1-1.289-1.352 1.293 1.293 0 0 1 1.353-1.195zM56.384 63.05h17.861v6.258H56.384c.629 4.591 2.735 8.24 6.037 11.258 3.334 3.05 7.233 4.654 11.824 4.591v6.415c-1.383-.157-2.704-.283-4.056-.471-12.202-1.95-19.434-13.05-20.378-22.327-1.289-12.705 7.39-25.158 21.164-27.422C82.138 39.528 96.32 45.44 99.843 60.22c2.893 12.201-2.956 22.862-12.17 28.27-3.428 2.013-7.201 2.736-11.132 2.988-.126 0-.252 0-.44-.031v-28.27h16.603v6.194H82.358v14.623c.472-.22.912-.378 1.321-.598 7.327-3.773 10.818-9.905 10.63-18.019-.19-8.27-7.17-16.069-15.41-17.484-5.88-1.006-11.352-.094-16.132 3.648-3.679 2.893-5.66 6.792-6.383 11.51z"/>
  </g>
</svg>
