<svg xmlns="http://www.w3.org/2000/svg" viewBox="0 0 175 175">
  <path d="M77.937 88.554c-.116 6.715-5.628 12.058-12.307 11.941-6.68-.117-12.046-5.635-11.929-12.32.117-6.687 5.629-12.059 12.308-11.942 6.708.087 12.045 5.606 11.928 12.32zm10.617-58.977c-2.48 1.08-3.588 3.97-2.509 6.452 1.08 2.482 3.967 3.591 6.446 2.511 2.479-1.08 3.587-3.97 2.508-6.452-1.108-2.482-3.995-3.592-6.445-2.511zm.816-11.3a3.285 3.285 0 0 0-1.691 4.38c.758 1.694 2.683 2.453 4.374 1.694a3.285 3.285 0 0 0 1.692-4.38c-.729-1.664-2.683-2.423-4.375-1.693zm-69.384 92.641c-1.692.73-2.45 2.686-1.692 4.38.73 1.693 2.683 2.452 4.375 1.693 1.692-.759 2.45-2.686 1.692-4.38-.759-1.663-2.713-2.452-4.375-1.693zm60.11-50.86c-5.046-.088-9.187 3.941-9.275 8.963-.087 5.051 3.937 9.197 8.954 9.285 5.045.087 9.187-3.942 9.274-8.964.088-5.05-3.937-9.196-8.953-9.284zm-30.012 51.006c4.2.088 7.671-3.211 7.758-7.416.088-4.204-3.208-7.678-7.408-7.766-4.2-.087-7.67 3.212-7.758 7.416-.087 4.204 3.238 7.679 7.408 7.766zm37.07-52.612c4.2.088 7.67-3.211 7.758-7.416.087-4.204-3.208-7.679-7.408-7.766-4.2-.088-7.67 3.212-7.758 7.416-.088 4.204 3.237 7.679 7.408 7.766zM39.002 115.24c2.42-2.51 2.362-6.54-.146-8.963-2.508-2.423-6.533-2.365-8.954.146-2.42 2.511-2.362 6.54.146 8.963 2.508 2.453 6.533 2.365 8.954-.146zm48.123-18.247c-6.68.613-11.58 6.51-10.996 13.167.613 6.686 6.504 11.591 13.154 11.007 6.679-.613 11.578-6.51 10.995-13.167-.612-6.686-6.504-11.591-13.153-11.007zm54.947-21.051c-2.537-.905-5.337.438-6.241 2.978-.904 2.54.437 5.343 2.975 6.248 2.537.905 5.337-.438 6.241-2.978.875-2.54-.437-5.343-2.975-6.248zm12.133 1.226a3.314 3.314 0 0 0-2.217 6.248 3.314 3.314 0 0 0 2.217-6.248zM66.067 151.56a3.314 3.314 0 0 0-2.216 6.248 3.314 3.314 0 0 0 2.216-6.248zm39.315-66.948c-5.016.438-8.72 4.876-8.254 9.898.438 5.022 4.87 8.73 9.887 8.263 5.017-.468 8.72-4.876 8.254-9.898-.437-5.022-4.87-8.73-9.887-8.263zM74.933 133.4c4.171-.409 7.233-4.117 6.825-8.292-.408-4.175-4.112-7.24-8.283-6.832-4.17.409-7.233 4.117-6.825 8.292.409 4.175 4.113 7.24 8.283 6.832zm49.698-40.875c4.17-.41 7.233-4.117 6.825-8.292-.408-4.175-4.112-7.241-8.283-6.832-4.17.408-7.233 4.116-6.825 8.292.409 4.175 4.113 7.24 8.283 6.832zM62.86 146.07c2.596 2.336 6.62 2.102 8.954-.496 2.333-2.599 2.1-6.628-.496-8.964-2.596-2.335-6.62-2.102-8.954.497a6.366 6.366 0 0 0 .496 8.963z"/>
</svg>
