<svg xmlns="http://www.w3.org/2000/svg" viewBox="0 0 123 123">
  <g transform="translate(11 11)">
    <path d="M99.92 50.2L87 50.65a1 1 0 0 1-1-1 34.93 34.93 0 0 0-3.24-13.52 1 1 0 0 1 .43-1.33l11.46-6.09a1 1 0 0 1 1.4.45 49.54 49.54 0 0 1 4.93 20 1 1 0 0 1-1.06 1.04z" />
    <path d="M81.92 67.22a34.9 34.9 0 0 0 3.89-13.12 1 1 0 0 1 1-.94l13 .46a1 1 0 0 1 1 1.09 49.8 49.8 0 0 1-5.64 19.56 1 1 0 0 1-1.39.41l-11.44-6.09a1 1 0 0 1-.42-1.37z" />
    <path d="M69.91 80.34A35.11 35.11 0 0 0 79.63 71a1 1 0 0 1 1.37-.32l11 6.88a1 1 0 0 1 .31 1.44 50.3 50.3 0 0 1-14.43 14 1 1 0 0 1-1.42-.33l-6.87-11a1 1 0 0 1 .32-1.33z" />
    <path d="M52.63 99.83l-.45-13a1 1 0 0 1 1-1 34.73 34.73 0 0 0 13-3.36 1 1 0 0 1 1.34.43l6.09 11.45a1 1 0 0 1-.44 1.4 49.72 49.72 0 0 1-19.47 5.07 1 1 0 0 1-1.07-.99z" />
    <path d="M35.82 82.47a34.78 34.78 0 0 0 13 3.36 1 1 0 0 1 1 1l-.46 13a1 1 0 0 1-1.07 1 49.72 49.72 0 0 1-19.38-5.07 1 1 0 0 1-.44-1.4l6.01-11.46a1 1 0 0 1 1.34-.43z" />
    <path d="M22.28 71A35.25 35.25 0 0 0 32 80.34a1 1 0 0 1 .32 1.39l-6.87 11a1 1 0 0 1-1.41.33A50.34 50.34 0 0 1 9.6 79a1 1 0 0 1 .31-1.44l11-6.88a1 1 0 0 1 1.37.32z" />
    <path d="M2.09 53.62l13-.46a1 1 0 0 1 1 .94A34.71 34.71 0 0 0 20 67.22a1 1 0 0 1-.41 1.37L8.13 74.68a1 1 0 0 1-1.38-.41A49.64 49.64 0 0 1 1.1 54.71a1 1 0 0 1 .99-1.09z" />
    <path d="M19.23 36.14A34.76 34.76 0 0 0 16 49.66a1 1 0 0 1-1 1L2 50.2a1 1 0 0 1-1-1.05 49.55 49.55 0 0 1 4.94-20 1 1 0 0 1 1.4-.45l11.45 6.09a1 1 0 0 1 .44 1.35z" />
    <path d="M31.15 22.06a35.2 35.2 0 0 0-9.78 10.16 1 1 0 0 1-1.4.33L9 25.67a1 1 0 0 1-.33-1.4 50.36 50.36 0 0 1 14.5-14.9 1 1 0 0 1 1.43.32l6.87 11a1 1 0 0 1-.32 1.37z" />
    <path d="M28 6.5A49.72 49.72 0 0 1 48.14 1a1 1 0 0 1 1.07 1l.46 13a1 1 0 0 1-1 1.05A34.7 34.7 0 0 0 35 19.75a1 1 0 0 1-1.37-.42L27.55 7.88A1 1 0 0 1 28 6.5z" />
    <path d="M66.91 19.75A34.8 34.8 0 0 0 53.21 16a1 1 0 0 1-1-1.05L52.7 2a1 1 0 0 1 1.07-1 49.72 49.72 0 0 1 20.17 5.5 1 1 0 0 1 .43 1.38l-6.09 11.45a1 1 0 0 1-1.37.42z" />
    <path d="M80.54 32.22a35.3 35.3 0 0 0-9.77-10.16 1 1 0 0 1-.3-1.38l6.87-11a1 1 0 0 1 1.43-.32 50.36 50.36 0 0 1 14.5 14.9 1 1 0 0 1-.33 1.4l-11 6.88a1 1 0 0 1-1.4-.32z" />
  </g>
</svg>
