<svg xmlns="http://www.w3.org/2000/svg" viewBox="0 0 700 275">
  <g fill="none" fill-rule="evenodd" transform="translate(63 36)">
    <path fill="#000" fill-rule="nonzero" d="M246.434 78.85c0-1.563.924-1.989 2.116-.925l36.393 34.045c1.164 1.046 2.106.62 2.106-.926v-30.86a2.857 2.857 0 0 1 2.846-2.85h4.518a2.857 2.857 0 0 1 2.836 2.85v56.67c0 1.563-.923 2.072-2.115 1.026l-36.476-34.174c-1.165-1.055-2.107-.629-2.107.926v30.842a2.857 2.857 0 0 1-2.846 2.85h-4.425a2.857 2.857 0 0 1-2.846-2.85V78.851zm113.207 51.914a5.034 5.034 0 0 0-4.111-2.545h-22.331a5.09 5.09 0 0 0-4.13 2.536l-2.605 5.136a5.09 5.09 0 0 1-4.13 2.535h-5.664a1.616 1.616 0 0 1-1.634-.747 1.622 1.622 0 0 1 .063-1.798l27.967-57.493c.702-1.397 1.848-1.397 2.541 0l27.967 57.493c.382.532.407 1.241.063 1.798a1.616 1.616 0 0 1-1.634.747h-5.654a5.044 5.044 0 0 1-4.12-2.545l-2.588-5.117zm-23.033-15.222a1.622 1.622 0 0 0-.063 1.798c.344.556.988.851 1.634.747h12.25c.646.104 1.29-.19 1.635-.747a1.622 1.622 0 0 0-.063-1.798l-6.468-12.872c-.693-1.397-1.848-1.397-2.54 0l-6.385 12.872zm35.247-35.377a2.848 2.848 0 0 1 2.846-2.841h45.216a2.848 2.848 0 0 1 2.837 2.84v4.526a2.848 2.848 0 0 1-2.837 2.84h-14.625a2.857 2.857 0 0 0-2.846 2.85v45.205a2.848 2.848 0 0 1-2.836 2.841h-4.518a2.848 2.848 0 0 1-2.837-2.84V90.38a2.857 2.857 0 0 0-2.845-2.85H374.7a2.848 2.848 0 0 1-2.846-2.841v-4.525zm68.48 0a2.857 2.857 0 0 1 2.847-2.841h4.425a2.857 2.857 0 0 1 2.846 2.84v55.421a2.857 2.857 0 0 1-2.846 2.841h-4.425a2.857 2.857 0 0 1-2.846-2.84V80.164zm35.193-2.841a5.053 5.053 0 0 1 4.12 2.545l16.63 33.211c.703 1.398 1.849 1.398 2.55 0L515.46 79.87a5.025 5.025 0 0 1 4.112-2.545h5.654c.645-.105 1.29.19 1.634.747a1.622 1.622 0 0 1-.063 1.798l-27.958 57.502c-.702 1.407-1.848 1.407-2.54 0L468.302 79.87a1.622 1.622 0 0 1-.063-1.798 1.616 1.616 0 0 1 1.633-.747h5.655zm106.869 0a2.857 2.857 0 0 1 2.845 2.84v4.526a2.857 2.857 0 0 1-2.845 2.84H557.58a2.857 2.857 0 0 0-2.845 2.85v9.634a2.848 2.848 0 0 0 2.845 2.84h24.817a2.857 2.857 0 0 1 2.845 2.851v4.433a2.857 2.857 0 0 1-2.845 2.84H557.58a2.857 2.857 0 0 0-2.845 2.85v9.541a2.857 2.857 0 0 0 2.845 2.85h24.817a2.857 2.857 0 0 1 2.845 2.841v4.525a2.857 2.857 0 0 1-2.845 2.841h-34.933a2.848 2.848 0 0 1-2.837-2.84V80.164a2.848 2.848 0 0 1 2.837-2.841h34.933zM109.757 1.147l103.096 103.06a3.909 3.909 0 0 1 0 5.531L109.784 212.853a3.91 3.91 0 0 1-5.533 0L1.155 109.766a3.89 3.89 0 0 1 0-5.532L104.224 1.147a3.91 3.91 0 0 1 5.532 0zm11.508 119.6V62.809c0-2.139-1.245-2.646-2.767-1.134L91.157 89.012a3.909 3.909 0 0 0 0 5.532l27.341 27.346c1.531 1.512 2.767.996 2.767-1.143zM66.59 161.969l.018-76.027c0-2.14-1.254-2.655-2.766-1.134l-36.407 36.39a3.918 3.918 0 0 0 0 5.533l36.388 36.372c1.53 1.521 2.767 1.005 2.767-1.134z"/>
    <path fill="#6DD1BD" d="M104.245 11.15a3.92 3.92 0 0 1 5.547 0l94.058 94.112a3.924 3.924 0 0 1 0 5.551l-7.027 7.04a3.928 3.928 0 0 1-5.547 0l-65.85-65.896a3.92 3.92 0 0 0-5.547 0L86.493 85.354a3.9 3.9 0 0 1-5.548 0L70.636 75.048a3.92 3.92 0 0 0-5.547 0L22.558 117.65a3.92 3.92 0 0 1-5.548 0l-6.86-6.865a3.924 3.924 0 0 1 0-5.55l94.095-94.084z"/>
  </g>
</svg>
