<svg class="navbar-logo" viewBox="0 0 720.37 342.73" xmlns="http://www.w3.org/2000/svg">
  <title>Native_logo_white</title>
  <g fill="white">
    <g>
      <path class="a" d="M310.47,140c0-1.69,1-2.15,2.29-1l39.39,36.79c1.26,1.13,2.28.67,2.28-1V141.44a3.09,3.09,0,0,1,3.08-3.08h4.89a3.09,3.09,0,0,1,3.07,3.08v61.24c0,1.69-1,2.24-2.29,1.11L323.7,166.86c-1.26-1.14-2.28-.68-2.28,1v33.33a3.09,3.09,0,0,1-3.08,3.08h-4.79a3.09,3.09,0,0,1-3.08-3.08Z"></path>
      <path class="a" d="M433,196.1a5.45,5.45,0,0,0-4.45-2.75H404.38a5.51,5.51,0,0,0-4.47,2.74l-2.82,5.55a5.51,5.51,0,0,1-4.47,2.74h-6.13a1.75,1.75,0,0,1-1.7-2.75l30.27-62.13c.76-1.51,2-1.51,2.75,0l30.27,62.13a1.75,1.75,0,0,1-1.7,2.75h-6.12a5.46,5.46,0,0,1-4.46-2.75Zm-24.93-16.45a1.75,1.75,0,0,0,1.7,2.75h13.26a1.75,1.75,0,0,0,1.7-2.75l-7-13.91c-.75-1.51-2-1.51-2.75,0Z"></path>
      <path class="a" d="M446.22,141.42a3.08,3.08,0,0,1,3.08-3.07h48.94a3.08,3.08,0,0,1,3.07,3.07v4.89a3.08,3.08,0,0,1-3.07,3.07H482.41a3.09,3.09,0,0,0-3.08,3.08v48.85a3.08,3.08,0,0,1-3.07,3.07h-4.89a3.08,3.08,0,0,1-3.07-3.07V152.46a3.09,3.09,0,0,0-3.08-3.08H449.3a3.08,3.08,0,0,1-3.08-3.07Z"></path>
      <path class="a" d="M520.34,141.42a3.09,3.09,0,0,1,3.08-3.07h4.79a3.09,3.09,0,0,1,3.08,3.07v59.89a3.09,3.09,0,0,1-3.08,3.07h-4.79a3.09,3.09,0,0,1-3.08-3.07Z"></path>
      <path class="a" d="M558.43,138.35a5.47,5.47,0,0,1,4.46,2.75l18,35.89c.76,1.51,2,1.51,2.76,0l18-35.89a5.44,5.44,0,0,1,4.45-2.75h6.12a1.75,1.75,0,0,1,1.7,2.75l-30.26,62.14c-.76,1.52-2,1.52-2.75,0L550.61,141.1a1.75,1.75,0,0,1,1.7-2.75Z"></path>
      <path class="a" d="M674.1,138.35a3.09,3.09,0,0,1,3.08,3.07v4.89a3.09,3.09,0,0,1-3.08,3.07H647.24a3.09,3.09,0,0,0-3.08,3.08v10.41a3.08,3.08,0,0,0,3.08,3.07H674.1a3.09,3.09,0,0,1,3.08,3.08v4.79a3.09,3.09,0,0,1-3.08,3.07H647.24a3.09,3.09,0,0,0-3.08,3.08v10.31a3.09,3.09,0,0,0,3.08,3.08H674.1a3.09,3.09,0,0,1,3.08,3.07v4.89a3.09,3.09,0,0,1-3.08,3.07H636.29a3.08,3.08,0,0,1-3.07-3.07V141.42a3.08,3.08,0,0,1,3.07-3.07Z"></path>
    </g>
    <path class="a" d="M162.2,56.57a4.24,4.24,0,0,0-6,0L44.43,168.38a4.22,4.22,0,0,0,0,6l111.8,111.81a4.24,4.24,0,0,0,6,0L274,174.35a4.24,4.24,0,0,0,0-6Zm-6,10.08a4.24,4.24,0,0,1,6,0L263.93,168.38a4.24,4.24,0,0,1,0,6l-7.6,7.61a4.25,4.25,0,0,1-6,0l-71.22-71.23a4.24,4.24,0,0,0-6,0L137,146.86a4.22,4.22,0,0,1-6,0l-11.15-11.14a4.24,4.24,0,0,0-6,0l-46,46.05a4.24,4.24,0,0,1-6,0l-7.42-7.42a4.24,4.24,0,0,1,0-6Zm18.48,119.64c0,2.32-1.34,2.88-3,1.24l-29.65-29.66a4.24,4.24,0,0,1,0-6l29.65-29.65c1.65-1.64,3-1.09,3,1.23ZM115.39,231c0,2.32-1.34,2.88-3,1.23L72.93,192.78a4.25,4.25,0,0,1,0-6l39.48-39.47c1.64-1.65,3-1.09,3,1.23Z"></path>
  </g>
</svg>
