<svg xmlns="http://www.w3.org/2000/svg" viewBox="0 0 211 189">
  <g fill="none" fill-rule="evenodd">
    <polygon fill="#CDBDB2" points="60.75 173.25 88.313 180.563 88.313 171 90.563 168.75 106.313 168.75 106.313 180 106.313 187.875 89.438 187.875 68.625 178.875"/>
    <polygon fill="#CDBDB2" points="105.75 173.25 132.75 180.563 132.75 171 135 168.75 150.75 168.75 150.75 180 150.75 187.875 133.875 187.875 113.063 178.875" transform="matrix(-1 0 0 1 256.5 0)"/>
    <polygon fill="#393939" points="90.563 152.438 88.313 171 91.125 168.75 120.375 168.75 123.75 171 121.5 152.438 117 149.625 94.5 150.188"/>
    <polygon fill="#F89C35" points="75.375 27 88.875 58.5 95.063 150.188 117 150.188 123.75 58.5 136.125 27"/>
    <polygon fill="#F89D35" points="16.313 96.188 .563 141.75 39.938 139.5 65.25 139.5 65.25 119.813 64.125 79.313 58.5 83.813"/>
    <polygon fill="#D87C30" points="46.125 101.25 92.25 102.375 87.188 126 65.25 120.375"/>
    <polygon fill="#EA8D3A" points="46.125 101.813 65.25 119.813 65.25 137.813"/>
    <polygon fill="#F89D35" points="65.25 120.375 87.75 126 95.063 150.188 90 153 65.25 138.375"/>
    <polygon fill="#EB8F35" points="65.25 138.375 60.75 173.25 90.563 152.438"/>
    <polygon fill="#EA8E3A" points="92.25 102.375 95.063 150.188 86.625 125.719"/>
    <polygon fill="#D87C30" points="39.375 138.938 65.25 138.375 60.75 173.25"/>
    <polygon fill="#EB8F35" points="12.938 188.438 60.75 173.25 39.375 138.938 .563 141.75"/>
    <polygon fill="#E8821E" points="88.875 58.5 64.688 78.75 46.125 101.25 92.25 102.938"/>
    <polygon fill="#DFCEC3" points="60.75 173.25 90.563 152.438 88.313 170.438 88.313 180.563 68.063 176.625"/>
    <polygon fill="#DFCEC3" points="121.5 173.25 150.75 152.438 148.5 170.438 148.5 180.563 128.25 176.625" transform="matrix(-1 0 0 1 272.25 0)"/>
    <polygon fill="#393939" points="70.313 112.5 64.125 125.438 86.063 119.813" transform="matrix(-1 0 0 1 150.188 0)"/>
    <polygon fill="#E88F35" points="12.375 .563 88.875 58.5 75.938 27"/>
    <path fill="#8E5A30" d="M12.375.563L2.25 31.5l5.625 33.75-3.937 2.25 5.625 5.063-4.5 3.937 6.187 5.625L7.313 85.5l9 11.25L58.5 83.813c20.625-16.5 30.75-24.938 30.375-25.313S63 38.813 12.375.563z"/>
    <g transform="matrix(-1 0 0 1 211.5 0)">
      <polygon fill="#F89D35" points="16.313 96.188 .563 141.75 39.938 139.5 65.25 139.5 65.25 119.813 64.125 79.313 58.5 83.813"/>
      <polygon fill="#D87C30" points="46.125 101.25 92.25 102.375 87.188 126 65.25 120.375"/>
      <polygon fill="#EA8D3A" points="46.125 101.813 65.25 119.813 65.25 137.813"/>
      <polygon fill="#F89D35" points="65.25 120.375 87.75 126 95.063 150.188 90 153 65.25 138.375"/>
      <polygon fill="#EB8F35" points="65.25 138.375 60.75 173.25 90 153"/>
      <polygon fill="#EA8E3A" points="92.25 102.375 95.063 150.188 86.625 125.719"/>
      <polygon fill="#D87C30" points="39.375 138.938 65.25 138.375 60.75 173.25"/>
      <polygon fill="#EB8F35" points="12.938 188.438 60.75 173.25 39.375 138.938 .563 141.75"/>
      <polygon fill="#E8821E" points="88.875 58.5 64.688 78.75 46.125 101.25 92.25 102.938"/>
      <polygon fill="#393939" points="70.313 112.5 64.125 125.438 86.063 119.813" transform="matrix(-1 0 0 1 150.188 0)"/>
      <polygon fill="#E88F35" points="12.375 .563 88.875 58.5 75.938 27"/>
      <path fill="#8E5A30" d="M12.375.563L2.25 31.5l5.625 33.75-3.937 2.25 5.625 5.063-4.5 3.937 6.187 5.625L7.313 85.5l9 11.25L58.5 83.813c20.625-16.5 30.75-24.938 30.375-25.313S63 38.813 12.375.563z"/>
    </g>
  </g>
</svg>
