<?xml version="1.0" encoding="UTF-8"?>
<svg viewBox="0 0 367 342" version="1.1" xmlns="http://www.w3.org/2000/svg" xmlns:xlink="http://www.w3.org/1999/xlink">
    <g>
        <path d="M185.757239,13.146429 L288.853655,116.206741 C289.587607,116.939938 290,117.934819 290,118.97225 C290,120.00968 289.587607,121.004561 288.853655,121.737758 L185.784239,224.85307 C185.05083,225.587388 184.055568,226 183.017728,226 C181.979888,226 180.984626,225.587388 180.251217,224.85307 L77.1548001,121.765758 C76.4158413,121.035027 76,120.038993 76,118.99975 C76,117.960507 76.4158413,116.964472 77.1548001,116.233741 L180.224217,13.146429 C180.957585,12.4124175 181.952633,12 182.990228,12 C184.027823,12 185.02287,12.4124175 185.756239,13.146429 L185.757239,13.146429 Z M197.25533,132.9431 L197.25533,75.004924 C197.25533,72.8659175 196.010325,72.3589159 194.488319,73.8709205 L167.147209,101.208003 C166.412951,101.941241 166.000364,102.936336 166.000364,103.974012 C166.000364,105.011687 166.412951,106.006783 167.147209,106.74002 L194.488319,134.086103 C196.019325,135.598108 197.25533,135.082106 197.25533,132.9431 Z M142.298885,174.036423 L142.316885,98.0091923 C142.316885,95.8691858 141.06288,95.3541842 139.550874,96.8751888 L103.143727,133.265299 C101.618898,134.794471 101.618898,137.269144 103.143727,138.798316 L139.531874,175.170426 C141.06188,176.691431 142.298885,176.175429 142.298885,174.036423 Z M180.245047,23.1498176 L180.245047,23.1508176 L86.149667,117.235103 C85.4135798,117.971023 85.0000364,118.969245 85.0000364,120.010111 C85.0000364,121.050977 85.4135798,122.049199 86.149667,122.78512 L93.0096947,129.65014 C93.7450137,130.386596 94.7430032,130.800428 95.783706,130.800428 C96.8244087,130.800428 97.8223982,130.386596 98.5577172,129.65014 L141.088889,87.0480112 C141.824168,86.3118617 142.821943,85.8982239 143.8624,85.8982239 C144.902858,85.8982239 145.900633,86.3118617 146.635911,87.0480112 L156.944953,97.3540424 C157.677631,98.0954497 158.67661,98.5127098 159.718964,98.5127098 C160.761319,98.5127098 161.760298,98.0954497 162.492975,97.3540424 L195.87911,63.9569412 C196.614389,63.2207918 197.612164,62.807154 198.652622,62.807154 C199.693079,62.807154 200.690854,63.2207918 201.426133,63.9569412 L267.276399,129.853141 C268.809461,131.381779 271.290359,131.381779 272.823421,129.853141 L279.85045,122.81312 C280.586843,122.077159 281.000581,121.078722 281.000581,120.037611 C281.000581,118.9965 280.586843,117.998064 279.85045,117.262103 L185.79207,23.1498176 C185.056791,22.4136681 184.059016,22.0000303 183.018558,22.0000303 C181.978101,22.0000303 180.980326,22.4136681 180.245047,23.1498176 Z"></path>
        <path class="logo-text" d="M13,265.513397 C13,263.953081 13.9250475,263.527812 15.1183988,264.589985 L51.5526552,298.57654 C52.7179748,299.620744 53.6610427,299.195476 53.6610427,297.65213 L53.6610427,266.845107 C53.6648842,265.276945 54.9376356,264.006033 56.510269,264 L61.0333908,264 C62.602112,264.011494 63.8688044,265.280815 63.8726057,266.845107 L63.8726057,323.417822 C63.8726057,324.978138 62.9485594,325.486265 61.7552081,324.44206 L25.2378576,290.326727 C24.0715369,289.273538 23.128469,289.698807 23.128469,291.251137 L23.128469,322.040191 C23.1246275,323.608354 21.8518761,324.879265 20.2792427,324.885298 L15.8492263,324.885298 C14.276593,324.879265 13.0038415,323.608354 13,322.040191 L13,265.513397 Z M126.97569,318.33032 C126.128151,316.838921 124.576682,315.881186 122.86003,315.789689 L100.503715,315.789689 C98.7851715,315.883165 97.2300699,316.835346 96.3690326,318.321336 L93.7610795,323.448519 C92.8997988,324.934125 91.3447406,325.885904 89.6263976,325.979167 L83.9559766,325.979167 C83.3095954,326.083611 82.6638167,325.789227 82.3201243,325.233449 C81.9759666,324.677276 82.0008433,323.969325 82.3831957,323.438536 L110.3819,266.044235 C111.084696,264.649633 112.231995,264.649633 112.925781,266.044235 L140.924485,323.438536 C141.306918,323.969623 141.331946,324.677406 140.987557,325.233449 C140.643864,325.789227 139.998085,326.083611 139.351704,325.979167 L133.691295,325.979167 C131.971952,325.88883 130.417252,324.931197 129.566624,323.438536 L126.97569,318.33032 Z M103.463912,302.852936 C102.739435,302.969354 102.183781,303.556608 102.109316,304.284565 C102.034852,305.012522 102.460158,305.69955 103.146142,305.959427 C103.832126,306.219304 104.60763,305.987189 105.036693,305.393567 L117.30058,305.393567 C117.947332,305.49698 118.59298,305.202309 118.937199,304.646619 C119.281419,304.090929 119.256629,303.38332 118.874362,302.852936 L112.39903,290.003034 C111.705244,288.608432 110.548935,288.608432 109.85615,290.003034 L103.463912,302.852936 Z M139.143839,266.836123 C139.147701,265.269425 140.42189,264.001095 141.993066,264 L187.260324,264 C188.827592,264.00603 190.09615,265.272313 190.10054,266.835125 L190.10054,271.353355 C190.09615,272.916166 188.827592,274.182449 187.260324,274.188479 L172.618745,274.188479 C171.046111,274.194512 169.77336,275.465424 169.769518,277.033587 L169.769518,322.160983 C169.76568,323.723796 168.49757,324.990526 166.930303,324.997106 L162.407182,324.997106 C160.839914,324.991076 159.571356,323.724792 159.566966,322.161981 L159.566966,277.033587 C159.563127,275.465812 158.290983,274.19506 156.71874,274.188479 L141.992065,274.188479 C140.420889,274.187384 139.1467,272.919055 139.142838,271.352356 L139.142838,266.835125 L139.143839,266.836123 Z M207.219926,266.836123 C207.228706,265.271081 208.500628,264.005454 210.070153,264 L214.500169,264 C216.068916,264.005995 217.340073,265.270861 217.349396,266.835125 L217.349396,322.160983 C217.34062,323.725637 216.069304,324.991106 214.500169,324.997106 L210.070153,324.997106 C208.501406,324.991111 207.23025,323.726245 207.220927,322.161981 L207.220927,266.835125 L207.219926,266.836123 Z M242.790834,264.019961 C244.509659,264.111945 246.063631,265.069129 246.915504,266.560592 L263.564357,299.714578 C264.268154,301.110178 265.415453,301.110178 266.117247,299.714578 L282.768102,266.56159 C283.614574,265.068698 285.167228,264.110466 286.884764,264.020959 L292.545173,264.020959 C293.190904,263.916139 293.836636,264.210633 294.181026,264.766677 C294.525183,265.32285 294.500307,266.030801 294.117954,266.56159 L266.12826,323.964876 C265.425464,325.36946 264.278165,325.36946 263.585381,323.964876 L235.556642,266.56159 C235.17429,266.030801 235.149413,265.32285 235.493571,264.766677 C235.837113,264.211274 236.482375,263.916946 237.128422,264.020959 L242.789833,264.020959 L242.790834,264.019961 Z M350.151775,264.000998 C351.720131,264.007539 352.990681,265.272246 353,266.836123 L353,271.354353 C352.990681,272.91823 351.720131,274.182936 350.151775,274.189478 L325.306641,274.189478 C323.734399,274.196058 322.462255,275.46681 322.458416,277.034585 L322.458416,286.652046 C322.462827,288.217965 323.736246,289.485527 325.306641,289.487171 L350.151775,289.487171 C351.724407,289.493754 352.996711,290.765112 353,292.333276 L353,296.758666 C352.990681,298.322543 351.720131,299.58725 350.151775,299.593791 L325.306641,299.593791 C323.734399,299.600371 322.462255,300.871123 322.458416,302.438898 L322.458416,311.963519 C322.462255,313.531294 323.734399,314.802046 325.306641,314.808627 L350.151775,314.808627 C351.720518,314.815172 352.991228,316.080483 353,317.644749 L353,322.161981 C352.991228,323.726248 351.720518,324.991558 350.151775,324.998104 L315.179173,324.998104 C313.611906,324.992074 312.343348,323.725791 312.338957,322.16298 L312.338957,266.836123 C312.342799,265.272922 313.611516,264.006033 315.179173,264 L350.151775,264 L350.151775,264.000998 Z"></path>
    </g>
</svg>
