<svg xmlns="http://www.w3.org/2000/svg" viewBox="0 0 250 250">
  <path fill="#FFF" d="M127.757 19.146l103.096 103.06a3.909 3.909 0 0 1 0 5.531l-103.07 103.115a3.91 3.91 0 0 1-5.532 0L19.155 127.765a3.89 3.89 0 0 1 0-5.532L122.224 19.146a3.91 3.91 0 0 1 5.532 0zm11.508 119.6V80.808c0-2.139-1.245-2.646-2.767-1.134l-27.341 27.337a3.909 3.909 0 0 0 0 5.532l27.34 27.346c1.532 1.512 2.768.996 2.768-1.143zM84.59 179.968l.018-76.027c0-2.14-1.254-2.655-2.766-1.134l-36.407 36.39a3.918 3.918 0 0 0 0 5.533l36.388 36.372c1.53 1.521 2.767 1.005 2.767-1.134zM122.245 29.15v.001L28.15 123.234a3.924 3.924 0 0 0 0 5.55l6.86 6.865a3.92 3.92 0 0 0 5.548 0l42.53-42.602a3.92 3.92 0 0 1 5.548 0l10.309 10.306a3.9 3.9 0 0 0 5.548 0l33.386-33.397a3.92 3.92 0 0 1 5.547 0l65.85 65.896a3.928 3.928 0 0 0 5.547 0l7.027-7.04a3.924 3.924 0 0 0 0-5.55l-94.058-94.113a3.92 3.92 0 0 0-5.547 0z"/>
</svg>
