<svg xmlns="http://www.w3.org/2000/svg" viewBox="0 0 232 232">
  <g fill="none" transform="translate(9 9)">
    <path fill="#000" d="M109.757 1.147l103.096 103.06a3.909 3.909 0 0 1 0 5.531L109.784 212.853a3.91 3.91 0 0 1-5.533 0L1.155 109.766a3.89 3.89 0 0 1 0-5.532L104.224 1.147a3.91 3.91 0 0 1 5.532 0h.001zm11.508 119.6V62.809c0-2.139-1.245-2.646-2.767-1.134L91.157 89.012a3.909 3.909 0 0 0 0 5.532l27.341 27.346c1.531 1.512 2.767.996 2.767-1.143zM66.59 161.969l.018-76.027c0-2.14-1.254-2.655-2.766-1.134l-36.407 36.39a3.918 3.918 0 0 0 0 5.533l36.388 36.372c1.53 1.521 2.767 1.005 2.767-1.134z"/>
    <path fill="#6DD1BD" d="M104.245 11.15a3.92 3.92 0 0 1 5.547 0l94.058 94.112a3.924 3.924 0 0 1 0 5.551l-7.027 7.04a3.928 3.928 0 0 1-5.547 0l-65.85-65.896a3.92 3.92 0 0 0-5.547 0L86.493 85.354a3.9 3.9 0 0 1-5.548 0L70.636 75.048a3.92 3.92 0 0 0-5.547 0L22.558 117.65a3.92 3.92 0 0 1-5.548 0l-6.86-6.865a3.924 3.924 0 0 1 0-5.55l94.095-94.084v-.001z"/>
  </g>
</svg>
