<svg xmlns="http://www.w3.org/2000/svg" viewBox="0 0 175 175">
  <g transform="translate(23 23)">
    <path d="M96.352 94.778v1.74c.027 1.115.027 2.23.055 3.318.027.571.054.571.625.571 2.475-.027 4.977-.027 7.452-.027 2.475 0 4.977.027 7.452.055.462 0 .952-.028 1.414 0 .517.027.599.163.626.68l.081 6.173c.014.1.014.2 0 .3-.027.38-.108.462-.49.489-.68.027-1.359.027-2.039.027-1.85 0-3.699.027-5.548.027-1.577 0-3.155-.054-4.76-.054-1.387 0-2.746.027-4.133.027-.599 0-.653.082-.653.68.027 1.985.081 3.943.054 5.929a3.264 3.264 0 0 1-.544 1.85 5.798 5.798 0 0 1-3.127 2.556 3.231 3.231 0 0 1-1.143.163c-.843.027-1.686.027-2.529.027h-.484c-.3 0-.462-.109-.49-.435a13.15 13.15 0 0 1-.054-1.034c-.027-4.025-.027-8.05-.027-12.102 0-1.496 0-2.992-.027-4.515-.055-4.052-.082-8.104-.136-12.157 0-.49 0-.979-.027-1.468-.028-.49.136-.653.598-.653.462 0 .897.027 1.36.027 2.447 0 4.895.027 7.343.027 1.795 0 3.617-.027 5.412-.027 1.877 0 3.753.027 5.602.027h6.772c1.387 0 2.747.028 4.134.055.49 0 .599.109.599.625.027.816.027 1.632.027 2.475l.081 3.89c0 .598-.054.706-.652.706H97.228a4.982 4.982 0 0 0-.876.028zM16.83 20.64h2.42c.654 0 1.306.054 1.959.081 1.224.027 2.448-.027 3.671.055 1.47.108 2.938-.028 4.406.027 1.224.054 2.42.054 3.645.081.326 0 .652 0 .979.028.408 0 .544-.11.544-.544.027-1.143 0-2.312 0-3.454 0-.87-.027-1.768.054-2.638a4.512 4.512 0 0 1 1.578-2.965 5.78 5.78 0 0 1 2.42-1.278c.1-.014.2-.014.3 0 1.114.027 2.257.027 3.372.081.516.028.598.11.598.626 0 2.883-.027 5.766 0 8.648 0 2.122.027 4.243.027 6.365 0 1.713-.054 3.4-.054 5.112 0 1.904.027 3.835.027 5.739v3.699c0 .299.054.625.054.924 0 .436-.108.626-.57.626-.871.027-1.769.027-2.639.027l-7.017-.081c-2.094-.028-4.188-.028-6.282-.055-3.508-.027-7.017-.081-10.552-.109-1.442 0-2.883 0-4.297-.027-.925 0-.952-.081-.952-.979.027-1.36.027-2.72.027-4.08v-2.094c0-.516.054-.57.544-.57 1.06 0 2.094.027 3.155.054h5.412c1.115 0 2.203.054 3.318.081l5.493.082c1.768.027 3.536.054 5.304.054.57 0 .707-.109.707-.68V29.1c-.027-.38-.136-.49-.544-.516-1.033-.028-2.067-.028-3.073-.028l-4.732-.081c-.87-.027-1.768-.027-2.639-.054l-6.037-.082c-.653 0-.734-.109-.734-.762 0-1.55.027-3.073.027-4.623 0-.517-.027-1.033 0-1.55a2.6 2.6 0 0 1 .081-.764zm100.954 52.734c.49.897 1.306 1.414 1.958 2.067.925.924 1.959 1.74 2.747 2.828.243.333.436.7.571 1.088.224.482.37.996.436 1.523a5.87 5.87 0 0 1-.218 1.822 4.596 4.596 0 0 1-1.496 2.366c-.415.394-.797.822-1.142 1.279-.653.707-.707.924-1.523.108-1.686-1.713-3.4-3.4-5.113-5.085-1.877-1.877-3.78-3.726-5.657-5.603a187.127 187.127 0 0 1-3.29-3.318c-1.769-1.768-3.564-3.535-5.331-5.303-.68-.653-1.36-1.333-2.013-1.986-.462-.462-.462-.68 0-1.142 2.013-2.04 4.025-4.052 6.038-6.092 3.1-3.1 6.173-6.2 9.274-9.301 1.305-1.306 2.61-2.557 3.916-3.862.707-.68 1.387-1.414 2.094-2.094.381-.354.435-.354.816 0a332.88 332.88 0 0 1 4.433 4.46c.354.354.354.517 0 .87-2.393 2.42-4.814 4.841-7.207 7.262-2.121 2.121-4.27 4.215-6.391 6.337-.762.761-1.496 1.577-2.312 2.393 1.251 1.36 2.611 2.61 3.944 3.97.353-.326.68-.625 1.006-.951 2.856-2.856 5.711-5.73 8.567-8.622.761-.761 1.496-1.523 2.257-2.284.435-.408.544-.408.952 0a618.026 618.026 0 0 1 4.216 4.243c.108.108.19.217.299.326.217.3.217.408-.055.68-1.686 1.713-3.4 3.4-5.085 5.113-1.007 1.033-1.959 2.094-2.965 3.128-1.088 1.115-2.203 2.202-3.29 3.318a2.317 2.317 0 0 0-.436.462zM11.988 55.506c-.49-.898-1.305-1.415-1.958-2.067-.925-.925-1.958-1.74-2.747-2.829a4.161 4.161 0 0 1-.57-1.088A5.118 5.118 0 0 1 6.276 48a5.87 5.87 0 0 1 .218-1.822 4.596 4.596 0 0 1 1.495-2.366c.416-.394.798-.821 1.143-1.278.652-.707.707-.925 1.523-.109 1.686 1.713 3.4 3.4 5.113 5.086 1.876 1.876 3.78 3.726 5.657 5.602 1.115 1.088 2.202 2.203 3.29 3.318 1.768 1.768 3.563 3.536 5.33 5.304.68.652 1.36 1.332 2.013 1.985.463.462.463.68 0 1.142-2.012 2.04-4.025 4.053-6.037 6.092-3.1 3.1-6.174 6.201-9.274 9.302-1.306 1.305-2.611 2.556-3.917 3.862-.707.68-1.387 1.414-2.094 2.094-.38.353-.435.353-.816 0-1.495-1.469-2.964-2.965-4.433-4.46-.353-.354-.353-.517 0-.87 2.394-2.421 4.814-4.842 7.207-7.262 2.122-2.122 4.27-4.216 6.392-6.337.761-.762 1.495-1.578 2.311-2.394-1.25-1.36-2.61-2.61-3.943-3.97-.354.326-.68.625-1.006.952-2.856 2.855-5.71 5.73-8.562 8.621-.761.762-1.496 1.523-2.257 2.285-.435.407-.544.407-.952 0a618.034 618.034 0 0 1-4.216-4.243c-.108-.109-.19-.218-.299-.327-.217-.299-.217-.407.055-.68 1.686-1.713 3.4-3.399 5.085-5.112 1.007-1.034 1.959-2.095 2.965-3.128 1.088-1.115 2.203-2.203 3.29-3.318.158-.163.267-.3.43-.462zm96.467-21.594h3.345a24.028 24.028 0 0 1 3.128.081 6.06 6.06 0 0 1 1.876.707c1.197.599 1.795 1.66 2.34 2.829.271.57.135 1.17.162 1.767.055.708 0 1.442 0 2.149 0 .707-.081.761-.734.761-1.469-.027-2.91-.054-4.379-.054-.843 0-1.686.027-2.529.027-1.768 0-3.536-.027-5.303-.027h-6.908c-1.469 0-2.91-.027-4.379-.027-1.55 0-3.073-.027-4.623-.027-.68 0-1.387.027-2.067 0-.68-.027-.707-.055-.707-.707v-4.869c0-1.577.054-3.154.054-4.732 0-1.305-.054-2.638-.082-3.943-.027-1.877 0-3.78-.027-5.657-.027-3.481-.027-6.99-.054-10.471v-.054c0-1.088.081-1.143 1.142-1.115 1.713.027 3.4.027 5.113.054.245-.005.49.005.734.027.49.027.571.082.599.598.027.816 0 1.632 0 2.475v3.509c0 3.508.027 7.044.027 10.552 0 1.74.027 3.508.054 5.249 0 .3.055.598.082.925 1.822.027 3.563.054 5.385 0 .136-2.938.027-5.793.027-8.649v-8.567c.598-.299 1.197-.109 1.795-.136.952-.027 1.877.027 2.828.027.762 0 1.523 0 2.285.028.625.027.707.108.707.734v9.247c0 2.176 0 4.351.027 6.554 0 .163.055.408.082.735zM21.697 95.947h-3.345c-1.043.04-2.088.014-3.127-.082a6.06 6.06 0 0 1-1.877-.707c-1.197-.598-1.795-1.659-2.339-2.828-.272-.571-.136-1.17-.163-1.768-.054-.707 0-1.441 0-2.148 0-.708.082-.762.734-.762 1.469.027 2.91.054 4.379.054.843 0 1.686-.027 2.53-.027 1.767 0 3.535.027 5.303.027H30.7c1.468 0 2.91.028 4.378.028 1.55 0 3.073.027 4.624.027.68 0 1.387-.027 2.067 0 .68.027.707.054.707.707v4.868c0 1.578-.055 3.155-.055 4.732 0 1.306.055 2.638.082 3.944.027 1.876 0 3.78.027 5.657.027 3.481.027 6.99.055 10.47v.055c0 1.088-.082 1.142-1.143 1.115-1.713-.027-3.4-.027-5.113-.054a6.628 6.628 0 0 1-.734-.028c-.49-.027-.571-.081-.598-.598-.028-.816 0-1.632 0-2.475v-3.508c0-3.509-.028-7.044-.028-10.552 0-1.741-.027-3.509-.054-5.25 0-.299-.054-.598-.082-.924-1.822-.027-3.562-.055-5.384 0-.136 2.937-.028 5.793-.028 8.648v8.57c-.598.3-1.196.109-1.795.136-.952.027-1.876-.027-2.828-.027-.762 0-1.523 0-2.285-.027-.625-.028-.707-.11-.707-.735v-9.247c0-2.175 0-4.351-.027-6.554a2.81 2.81 0 0 0-.082-.737zM64.728 21.51l3.97-3.89c-.353-.38-.625-.706-.951-1.033-2.638-2.665-5.303-5.33-7.942-8.023-1.006-1.006-1.985-2.012-2.991-3.019-.435-.462-.435-.544.027-1.006 1.414-1.414 2.828-2.801 4.243-4.215.435-.436.652-.436 1.088.027 1.087 1.115 2.148 2.23 3.209 3.318 1.196 1.224 2.447 2.448 3.644 3.671a432.348 432.348 0 0 0 3.563 3.59l1.36 1.36c.598-.571 1.17-1.088 1.713-1.604.98-.98 1.904-2.013 2.937-2.91.463-.408 1.143-.572 1.74-.816.213-.065.432-.102.654-.11 1.36-.217 2.665-.054 3.726.926a49.55 49.55 0 0 1 2.42 2.366c.245.244.218.435-.027.68-.517.543-1.06 1.033-1.578 1.55-1.659 1.713-3.318 3.427-5.004 5.113a349.125 349.125 0 0 1-4.542 4.433c-.625.625-1.223 1.278-1.849 1.876-2.04 1.986-4.107 3.971-6.146 5.984-.762.734-1.469 1.495-2.203 2.23-.163.163-.354.326-.544.516-.435-.136-.68-.462-.98-.761-1.278-1.251-2.529-2.53-3.78-3.808-1.223-1.223-2.42-2.474-3.644-3.671-1.931-1.931-3.89-3.862-5.793-5.793l-4.487-4.569c-.653-.68-1.333-1.333-1.986-2.013-.217-.244-1.17-1.169-1.414-1.414-.462-.408-.435-.598-.027-1.006 1.469-1.414 2.964-2.856 4.46-4.27.136-.136.327-.245.517-.408 5.57 5.548 11.063 11.096 16.617 16.699zm.892 86.35l-3.97 3.888c.353.381.625.707.951 1.034 2.638 2.665 5.304 5.33 7.942 8.023 1.006 1.006 1.985 2.012 2.991 3.019.435.462.435.544-.027 1.006-1.414 1.414-2.828 2.801-4.243 4.215-.435.436-.652.436-1.087-.027-1.088-1.115-2.149-2.23-3.21-3.318-1.196-1.224-2.447-2.447-3.644-3.671a432.348 432.348 0 0 0-3.563-3.59l-1.36-1.36c-.598.571-1.169 1.088-1.713 1.604-.98.98-1.904 2.013-2.937 2.91-.463.408-1.142.572-1.74.816a2.521 2.521 0 0 1-.654.11c-1.36.217-2.665.054-3.725-.925a49.666 49.666 0 0 1-2.421-2.367c-.245-.244-.218-.435.027-.68.517-.543 1.06-1.033 1.578-1.55a443.623 443.623 0 0 1 5.004-5.113 349.123 349.123 0 0 1 4.542-4.433c.625-.625 1.224-1.278 1.849-1.876 2.04-1.986 4.107-3.971 6.146-5.984.762-.734 1.47-1.495 2.203-2.23.164-.163.354-.326.544-.516.435.136.68.462.98.761 1.278 1.251 2.529 2.53 3.78 3.808 1.224 1.223 2.42 2.474 3.644 3.671 1.931 1.931 3.89 3.862 5.793 5.793l4.487 4.57c.653.679 1.333 1.332 1.986 2.012.217.244 1.17 1.17 1.414 1.414.462.408.435.598.027 1.006-1.468 1.414-2.964 2.856-4.46 4.27-.136.136-.326.245-.517.408-5.575-5.575-11.069-11.123-16.617-16.699z"/>
    <path d="M103.777 79.901a36.02 36.02 0 0 0-1.441-1.441c-2.557-2.53-5.14-5.032-7.697-7.561a4.857 4.857 0 0 1-.843-.98c-.218-.353-.68-.543-.98-.842l-4.27-4.27c-.298-.3-.298-.354 0-.653.68-.707 1.333-1.414 2.013-2.094a1247.37 1247.37 0 0 1 5.956-5.983c1.116-1.115 2.203-2.23 3.318-3.318 1.224-1.224 2.448-2.42 3.672-3.645.19-.19.49-.353.326-.734-.136 0-.272-.027-.408-.027h-7.207a566.677 566.677 0 0 0-6.826-.054c-2.013-.028-4.025-.028-6.038-.028-.462-.027-.952 0-1.414 0-.3 0-.435-.136-.435-.462v-.487c-.027-2.339-.027-4.678-.054-7.017v-2.094c.027-.87.054-1.767.054-2.638v-7.887c0-.544.109-1.142-.19-1.768a5.49 5.49 0 0 0-.626.49c-1.197 1.197-2.393 2.366-3.59 3.563a960.122 960.122 0 0 1-5.303 5.249l-5.712 5.711a8.703 8.703 0 0 1-.734.598c-5.33-5.33-10.607-10.634-15.91-15.964a1.6 1.6 0 0 0-.245 1.06v3.319c.028 1.169.055 2.338.055 3.508 0 1.632-.055 3.29-.055 4.922v8.622c0 .217.028.462.028.68-.028.38-.136.462-.49.49h-.865c-2.176 0-4.379-.028-6.581-.028h-1.66c-1.169-.027-2.338-.082-3.508-.082-1.604-.027-3.21 0-4.814-.027-1.414 0-2.828-.054-4.242-.081-.238.02-.475.056-.707.108.148.237.312.464.49.68.706.708 1.44 1.415 2.148 2.122 1.36 1.36 2.72 2.747 4.08 4.106 1.005 1.007 1.984 2.013 2.99 3.02a360.117 360.117 0 0 0 3.264 3.208c.898.898 1.795 1.823 2.693 2.72.109.136.217.3.326.435-.057.095-.12.186-.19.272-.789.816-1.578 1.632-2.393 2.42-2.013 1.986-4.053 3.917-6.065 5.902-2.149 2.095-4.243 4.216-6.364 6.31a9.6 9.6 0 0 0-.762.734.544.544 0 0 0-.163.408.514.514 0 0 0 .38.19c.409.028.817 0 1.225 0 1.849.028 3.698.055 5.548.055 1.659 0 3.318-.054 4.977-.054 2.774 0 5.548 0 8.322.027l2.203.081c.026.144.045.29.054.436 0 .68-.027 1.36-.027 2.04.027 3.29.027 6.581.027 9.872 0 3.127-.027 6.255-.027 9.383 0 .299-.027.598 0 .87s.218.353.435.217c.054-.054.109-.136.163-.19.435-.435.843-.897 1.279-1.333 1.495-1.523 3.018-3.018 4.514-4.541 1.142-1.197 2.257-2.42 3.427-3.618a849.738 849.738 0 0 1 5.004-5.03c.435-.436.898-.844 1.333-1.28.163.137.272.191.353.273a875.218 875.218 0 0 1 5.032 5.004c1.414 1.387 2.801 2.801 4.188 4.188 1.305 1.279 2.584 2.584 3.89 3.862l2.528 2.448c.165.097.338.179.517.245v-1.224c0-.599-.054-1.197-.054-1.795l-.082-14.251v-4.57c0-1.033 0-1.033 1.034-1.033 4.324 0 8.621.027 12.945.027 2.557 0 5.14-.027 7.697-.027.264-.004.527-.022.789-.054.031-.066.068-.13.108-.19-.141-.166-.25-.357-.413-.52zm-16.563-6.174c-2.692 0-5.358-.027-8.023-.027-1.006 0-2.04.027-3.073.027-.272 0-.571-.054-.843-.027-.626.027-.626.055-.626.653 0 .68.028 1.36.028 2.04v9.437c0 .217-.028.435-.055.761a5.744 5.744 0 0 1-.517-.408c-1.087-1.06-2.148-2.148-3.236-3.209-.68-.68-1.414-1.332-2.094-2.012a274.733 274.733 0 0 1-2.801-2.856c-.11-.082-.218-.19-.327-.272a.386.386 0 0 0-.598.027c-.354.354-.762.707-1.115 1.061l-5.44 5.44c-.652.625-1.278 1.278-1.93 1.903-.055.082-.164.109-.327.245-.027-.707-.054-1.333-.054-1.931-.027-.68 0-1.36 0-2.04 0-2.067.027-4.161.027-6.228v-2.04c-.027-.516-.163-.68-.707-.707-.626-.027-1.278 0-1.904 0h-2.284c-.952 0-1.931 0-2.883-.027-.789 0-1.55-.054-2.34-.054-.788 0-1.55.054-2.338.081-.2.015-.4.006-.598-.027.153-.208.336-.391.544-.544 1.55-1.523 3.1-3.019 4.623-4.542 1.033-1.06 2.094-2.094 3.128-3.155.163-.163.38-.326.544-.49.244-.244.272-.407.027-.679-.408-.435-.843-.843-1.251-1.278-1.496-1.496-2.965-3.02-4.46-4.515-.762-.789-1.578-1.55-2.367-2.339-.217-.245-.49-.435-.57-.843.217 0 .407-.027.57-.027 2.611 0 5.25 0 7.887.027 1.197 0 2.366.054 3.563.027.789-.027.816-.081.816-.87v-7.887c0-1.224.027-2.42.027-3.644 0-.136.027-.245.055-.49 1.115 1.034 2.067 2.067 3.073 3.046 1.006.98 2.012 2.04 3.046 3.046 1.033 1.006 1.93 2.067 3.073 2.992 3.019-3.046 5.983-6.038 9.002-9.111.027.245.082.353.082.462 0 3.237.027 6.5.027 9.737v2.23c0 .163.054.326.082.57 2.12 0 4.242.028 6.336.055 2.095.027 4.189-.136 6.419.055a31.75 31.75 0 0 1-1.224 1.305c-1.088 1.088-2.149 2.203-3.236 3.29a397.502 397.502 0 0 1-3.427 3.373c-.272.245-.517.49-.762.735-.299.299-.326.462-.027.788.435.49.925.952 1.387 1.415.462.462.98 1.006 1.469 1.495a302.133 302.133 0 0 1 4.215 4.134c.571.544 1.088 1.115 1.66 1.714a1.335 1.335 0 0 1-.273.108z"/>
  </g>
</svg>
