<svg xmlns="http://www.w3.org/2000/svg" viewBox="0 0 66 57">
  <g transform="translate(6 3)">
    <path d="M36.198 24.883c.997 0 1.802.783 1.802 1.746 0 .964-.805 1.746-1.802 1.746-.995 0-1.802-.782-1.802-1.746 0-.963.807-1.746 1.802-1.746zM12.326 11.371h1.889l-2.218 2.175a1.128 1.128 0 0 1-.779-1.058c0-.592.497-1.117 1.108-1.117zm10.05-4.777l1.76 1.706-5.469 5.298H15.09l7.286-7.004zm6.654.004l2.18 2.114a4.525 4.525 0 0 1-2.18.553 4.522 4.522 0 0 1-2.182-.553l2.182-2.114zM11.218 32.853V15.559c.346.12.72.187 1.108.187h16.55l2.214-2.148h-9.287l3.438-3.33a6.774 6.774 0 0 0 3.79 1.146c1.369 0 2.68-.403 3.787-1.147l.856.83 1.917-1.86h-.67l-5.109-4.92a1.138 1.138 0 0 0-1.568 0l-2.54 2.464-2.543-2.463a1.165 1.165 0 0 0-1.564-.032L16.45 9.237h-4.123C10.492 9.237 9 10.636 9 12.488V35l2.218-2.147zm-9.693 17.63c.701.69 1.836.69 2.537.003L52.243 3.23a1.733 1.733 0 0 0-.002-2.488 1.816 1.816 0 0 0-2.535 0L1.525 47.997a1.733 1.733 0 0 0 0 2.487"/>
    <path d="M43.814 21.853v-4.642c0-.434-.112-.834-.272-1.211l-1.913 1.873v3.796h-3.88l-2.246 2.198c.192-.035.386-.057.585-.057h6.633c.603 0 1.093.478 1.093 1.07v4.28c0 .59-.49 1.07-1.093 1.07h-6.633c-1.807 0-3.279-1.44-3.279-3.211 0-.197.024-.384.06-.57l-2.028 1.984a5.44 5.44 0 0 0 5.247 3.936h5.54v2.211h-17.07l-2.185 2.14H41.63v1.07c0 .59-.493 1.07-1.095 1.07H20.187L18 41h22.534c1.809 0 3.28-1.44 3.28-3.21v-5.605C45.087 31.743 46 30.553 46 29.16v-4.28c0-1.395-.913-2.585-2.186-3.027"/>
  </g>
</svg>
