<svg xmlns="http://www.w3.org/2000/svg" viewBox="0 0 66 57">
  <g transform="translate(15 7)">
    <path d="M34.832 17.604A3.257 3.257 0 0 1 37 20.67v4.335a3.257 3.257 0 0 1-2.168 3.065v5.678A3.255 3.255 0 0 1 31.58 37H3.252A3.255 3.255 0 0 1 0 33.748V8.566c0-1.87 1.459-3.28 3.252-3.28h4.03L12.317.288a1.112 1.112 0 0 1 1.53.032l2.486 2.485L18.817.321a1.084 1.084 0 0 1 1.533 0l4.994 4.964h4.068c1.793 0 3.252 1.488 3.252 3.28v1.271a3.257 3.257 0 0 1 2.168 3.065v4.703zM29.412 7.44h-1.9l2.205 2.247h.78v-1.12c0-.598-.487-1.127-1.085-1.127zM19.584 2.62l-2.133 2.134c.644.365 1.374.56 2.133.56.759 0 1.489-.195 2.133-.56L19.584 2.62zm0 4.862a6.466 6.466 0 0 1-3.704-1.158l-3.363 3.362h14.134l-3.363-3.362a6.465 6.465 0 0 1-3.704 1.158zm-6.507-4.864L5.955 9.686H9.45L14.8 4.34l-1.722-1.721zm-9.825 4.82c-.598 0-1.084.53-1.084 1.128 0 .492.326.922.762 1.068l2.168-2.195H3.252zm29.412 26.31v-1.083H2.168v1.083c0 .598.486 1.084 1.084 1.084H31.58c.598 0 1.084-.486 1.084-1.084zm0-3.251v-2.24h-5.492a5.426 5.426 0 0 1-5.42-5.42 5.426 5.426 0 0 1 5.42-5.419h5.492v-4.517c0-.531-.385-.973-.89-1.065a1.088 1.088 0 0 1-.194.018H3.252c-.38 0-.745-.067-1.084-.188v18.83h30.496zm2.168-5.492V20.67c0-.598-.486-1.084-1.084-1.084h-6.576a3.255 3.255 0 0 0-3.252 3.251 3.255 3.255 0 0 0 3.252 3.252h6.576c.598 0 1.084-.486 1.084-1.084z"/>
    <circle cx="27" cy="23" r="2"/>
  </g>
</svg>
